<?xml version="1.0" standalone="no"?><!DOCTYPE svg PUBLIC "-//W3C//DTD SVG 1.1//EN" "http://www.w3.org/Graphics/SVG/1.1/DTD/svg11.dtd"><svg t="1749722712407" class="icon" viewBox="0 0 1024 1024" version="1.1" xmlns="http://www.w3.org/2000/svg" p-id="5032" xmlns:xlink="http://www.w3.org/1999/xlink" width="200" height="200"><path d="M940.34 482.17l-47.63-82.48a22 22 0 0 0-30.05-8.05l-150 86.58 178.09-185.83a22 22 0 0 0-0.66-31.12l-68.77-65.88a22 22 0 0 0-31.1 0.67l-123.6 129 94.24-163.22a22 22 0 0 0-8.06-30.05l-82.46-47.61a22 22 0 0 0-30.06 8L551 246.91l36.9-101.31a22 22 0 0 0-13.15-28.2l-89.5-32.58A22 22 0 0 0 457.05 98l-58.19 159.73c-0.61-0.08-1.23-0.15-1.86-0.18a18.86 18.86 0 0 0-2 0 20 20 0 0 0-14.47 7.25L85.29 622.52a20 20 0 0 0 1.29 26.88L374.1 936.92a20 20 0 0 0 26.9 1.28L758.7 643a20 20 0 0 0 1.42-29.56l-1.12-1.17 173.29-100a22 22 0 0 0 8.05-30.1zM806.65 236.73l42.77 41-208 217-41.88-41.88zM665.92 127.82l51.29 29.61L566 419.3l-43.36-43.36z m-177.45 0.74l55.66 20.27L477.76 331l-46.2-46.2z m212.42 510.25l-28.24 23.31-283.12 233.66L127.71 634l269.66-326.78 318.9 318.9zM729.71 583l-43.37-43.37 180.74-104.35 29.61 51.3z" p-id="5033" fill="#cdcdcd"></path></svg>