<svg t="1742473790382" class="icon" viewBox="0 0 1024 1024" version="1.1"
  xmlns="http://www.w3.org/2000/svg" p-id="11958" width="200" height="200">
  <path
    d="M748.65777778 147.91111111h-618.95111111A91.13144889 91.13144889 0 0 0 38.68444445 238.93333333v691.76888889C38.68444445 980.91008 79.53521778 1021.72444445 129.70666667 1021.72444445h618.95111111c50.20785778 0 91.02222222-40.81436445 91.02222222-91.02222223v-691.76888889C839.68 188.76188445 798.86563555 147.91111111 748.65777778 147.91111111z m18.20444444 782.79111111c0 10.01244445-8.192 18.20444445-18.20444444 18.20444445h-618.95111111a18.20444445 18.20444445 0 0 1-18.20444445-18.20444445v-691.76888889a18.20444445 18.20444445 0 0 1 18.20444445-18.20444444h618.95111111a18.20444445 18.20444445 0 0 1 18.20444444 18.20444444v691.76888889z"
    p-id="11959"></path>
  <path
    d="M894.29333333 2.27555555h-618.95111111a36.40888889 36.40888889 0 0 0 0 72.81777778h618.95111111a18.20444445 18.20444445 0 0 1 18.20444445 18.20444445v691.76888889a36.40888889 36.40888889 0 1 0 72.81777777 0v-691.76888889C985.31555555 43.12632889 944.50119111 2.27555555 894.29333333 2.27555555z"
    p-id="11960"></path>
  <path
    d="M621.22666667 339.05777778H257.13777778a36.40888889 36.40888889 0 0 0 0 72.81777777h364.08888889a36.40888889 36.40888889 0 1 0 0-72.81777777zM621.22666667 521.10222222H257.13777778a36.40888889 36.40888889 0 1 0 0 72.81777778h364.08888889a36.40888889 36.40888889 0 1 0 0-72.81777778zM475.59111111 701.61749333H257.13777778a36.40888889 36.40888889 0 1 0 0 72.81777778h218.45333333a36.40888889 36.40888889 0 1 0 0-72.81777778z"
    p-id="11961"></path>
</svg>
